<svg version="1.1" id="Layer_1" xmlns="http://www.w3.org/2000/svg" x="0" y="0" viewBox="0 0 375 200" xml:space="preserve"><style>.st0{fill:#dedfde}.st6{fill:#fff}.st9{fill:#60b042}.st10{fill:#94d17f}.st12{fill:#bd6fae}.st14{fill:#979797}</style><path class="st0" d="M126.15 33.92h52.18v69.33h-52.18z"/><path d="M136.28 33.92v65.56m9.06-65.56v65.56" fill="none" stroke="#e9e9ea" stroke-width="3.132" stroke-miterlimit="10"/><path fill="#e9e9ea" d="M155.58 146.31l-44.7-44.7 67.64-67.64 44.07 44.08z"/><path fill="none" stroke="#fff" stroke-width="4.971" stroke-miterlimit="10" d="M118.28 94.15l48.7 48.7"/><path fill="none" stroke="#fff" stroke-width="3.151" stroke-miterlimit="10" d="M125.01 87.42l48.69 48.7"/><circle cx="211.25" cy="122.16" r="60.28" fill="#c7c7c6"/><circle class="st6" cx="205.03" cy="117.85" r="59.4"/><circle transform="rotate(-80.781 205.027 117.846)" cx="205.03" cy="117.85" fill="none" stroke="#e9e9ea" stroke-width="9.023" stroke-miterlimit="10" r="41.78"/><path d="M241.17 136.26c-2.36-2.42-10.22-9.24-13.47-12.04-.8-.69-2-.65-2.76.09l11.5 11.76a.932.932 0 11-1.33 1.31l-10.98-11.23a.924.924 0 00-1.32-.01c-.37.36-.38.95-.01 1.32l10.98 11.23a.932.932 0 11-1.33 1.31l-10.98-11.23a.924.924 0 00-1.32-.01c-.37.36-.38.95-.01 1.32l10.98 11.23a.932.932 0 11-1.33 1.31l-11.5-11.76c-.76.74-.83 1.94-.15 2.76 2.73 3.3 9.38 11.32 11.74 13.73 2.23 2.28 5.6 2.92 8.47 1.85.79-.29 1.67-.02 2.23.6l31.05 34.87c1.58 1.79 4.33 1.88 6.04.21a4.164 4.164 0 00-.07-6.04l-34.17-31.82c-.61-.57-.86-1.47-.55-2.25 1.09-2.85.52-6.23-1.71-8.51zm-71.67 6.26c7.3-2.81 11.73-8.99 9.88-13.8-1.85-4.81-9.27-6.43-16.57-3.62-5.75 2.21-9.71 6.51-10.23 10.59-.1.79-.61 1.48-1.37 1.73l-44.22 14.68c-2.27.74-3.44 3.23-2.58 5.46.85 2.23 3.39 3.3 5.57 2.33l42.66-18.73c.73-.32 1.56-.15 2.17.37 3.11 2.67 8.93 3.2 14.69.99z" fill="#797a7b"/><path class="st9" d="M199.71 149.81l-16.95-16.95v16.95z"/><path class="st10" d="M194.66 90.75l11.29 11.29V90.75zm11.29 11.29l11.29 11.28v-11.28z"/><circle cx="189.7" cy="104.58" r="7" fill="#973780"/><path transform="rotate(45.001 189.703 104.58)" class="st9" d="M187.89 102.77h3.63v3.63h-3.63z"/><path class="st12" d="M224.23 90.27c0-3.86-3.13-7-7-7v13.99c3.87.01 7-3.13 7-6.99z"/><path d="M77.53 105.88H56.56c-1.62 0-2.93-1.31-2.93-2.93V86.28h26.84v16.67c0 1.62-1.32 2.93-2.94 2.93z" fill="#acacac"/><path class="st9" d="M295.49 81.9l-12.11-12.11V81.9z"/><path class="st10" d="M326.14 50.74l-12.11 12.1h12.11z"/><circle class="st14" cx="39.7" cy="104.11" r="1.5"/><circle class="st14" cx="96.52" cy="126.6" r="1.5"/><circle class="st14" cx="70.66" cy="119.1" r="1.5"/><circle class="st14" cx="96.52" cy="62.84" r="1.5"/><path class="st12" d="M336.8 127.76c0-4.14-3.36-7.5-7.5-7.5v15.01c4.14-.01 7.5-3.37 7.5-7.51z"/><circle class="st0" cx="67.05" cy="86.84" r="13.42"/><circle class="st6" cx="67.05" cy="86.84" r="10.33"/><circle class="st14" cx="63.99" cy="82.98" r=".78"/><circle class="st14" cx="70.11" cy="82.98" r=".78"/><circle class="st14" cx="63.99" cy="90.46" r=".78"/><circle class="st14" cx="70.11" cy="90.46" r=".78"/><circle class="st14" cx="60.83" cy="86.72" r=".78"/><circle class="st14" cx="66.95" cy="86.72" r=".78"/><circle class="st14" cx="73.17" cy="86.72" r=".78"/></svg>